<?xml version="1.0" encoding="UTF-8"?>
<svg id="a" xmlns="http://www.w3.org/2000/svg" viewBox="0 0 404.99 289.99">
    <defs>
        <style>.b{fill:#00b8c7;}.c{fill:#00829a;}.d{fill:#005770;}</style>
    </defs>
    <rect class="b" x="265.5" y="78.5" width="90" height="230" rx="45" ry="45"
        transform="translate(393.23 549.88) rotate(-135)" />
    <path class="c"
        d="M310.5-20.5h45v185c0,24.84-20.16,45-45,45h0c-24.84,0-45-20.16-45-45V24.5c0-24.84,20.16-45,45-45Z"
        transform="translate(596.87 -58.24) rotate(135)" />
    <rect class="d" x="159.5" y="-38.64" width="90" height="366.28" rx="45" ry="45"
        transform="translate(162.07 -102.28) rotate(45)" />
    <rect class="b" x="49.5" y="-18.5" width="90" height="230" rx="45" ry="45"
        transform="translate(95.91 -38.56) rotate(45)" />
    <path class="c"
        d="M94.5,80.5h45v185c0,24.84-20.16,45-45,45h0c-24.84,0-45-20.16-45-45V125.5c0-24.84,20.16-45,45-45Z"
        transform="translate(-110.56 124.08) rotate(-45)" />
</svg>